<svg width="375" height="219" viewBox="0 0 375 219" fill="none" xmlns="http://www.w3.org/2000/svg">
<mask id="mask0" mask-type="alpha" maskUnits="userSpaceOnUse" x="0" y="0" width="375" height="219">
<rect width="375" height="219" fill="#DF5C52"/>
</mask>
<g mask="url(#mask0)">
<circle cx="312.708" cy="177.708" r="2.70807" fill="#EC695F"/>
<circle cx="322.186" cy="177.708" r="2.70807" fill="#EC695F"/>
<circle cx="331.665" cy="177.708" r="2.70807" fill="#EC695F"/>
<circle cx="341.143" cy="177.708" r="2.70807" fill="#EC695F"/>
<circle cx="312.708" cy="187.186" r="2.70807" fill="#EC695F"/>
<circle cx="322.186" cy="187.186" r="2.70807" fill="#EC695F"/>
<circle cx="331.665" cy="187.186" r="2.70807" fill="#EC695F"/>
<circle cx="341.143" cy="187.186" r="2.70807" fill="#EC695F"/>
<circle cx="312.708" cy="196.665" r="2.70807" fill="#EC695F"/>
<circle cx="322.186" cy="196.665" r="2.70807" fill="#EC695F"/>
<circle cx="331.665" cy="196.665" r="2.70807" fill="#EC695F"/>
<circle cx="341.143" cy="196.665" r="2.70807" fill="#EC695F"/>
<circle cx="114.708" cy="64.7081" r="2.70807" fill="#CA554D"/>
<circle cx="124.186" cy="64.7081" r="2.70807" fill="#CA554D"/>
<circle cx="133.665" cy="64.7081" r="2.70807" fill="#CA554D"/>
<circle cx="143.143" cy="64.7081" r="2.70807" fill="#CA554D"/>
<circle cx="114.708" cy="74.1863" r="2.70807" fill="#CA554D"/>
<circle cx="124.186" cy="74.1863" r="2.70807" fill="#CA554D"/>
<circle cx="133.665" cy="74.1863" r="2.70807" fill="#CA554D"/>
<circle cx="143.143" cy="74.1863" r="2.70807" fill="#CA554D"/>
<circle cx="114.708" cy="83.6646" r="2.70807" fill="#CA554D"/>
<circle cx="124.186" cy="83.6646" r="2.70807" fill="#CA554D"/>
<circle cx="133.665" cy="83.6646" r="2.70807" fill="#CA554D"/>
<circle cx="143.143" cy="83.6646" r="2.70807" fill="#CA554D"/>
<path fill-rule="evenodd" clip-rule="evenodd" d="M375 102.413H370.485H369.327L368.983 103.518L360.371 131.142L351.704 103.515L351.358 102.413H350.203H336.915H334.715L335.426 104.495L350.813 149.509L351.176 150.573H352.301H368.386H369.511L369.875 149.509L375 134.514V124.788L367.262 147.427H353.426L339.115 105.559H349.048L358.875 136.882L360.38 141.681L361.877 136.879L371.642 105.559H375V102.413ZM191.433 27.4131H189.86V28.986V73.9999V75.5728H191.433H203.958H205.531V73.9999V61.2293L212.942 74.7557L213.39 75.5728H214.322H228.118H230.862L229.476 73.2052L220.213 57.3835C222.864 56.3278 225.027 54.7553 226.637 52.6348L226.637 52.6349L226.646 52.6238C228.602 49.9991 229.564 46.9291 229.564 43.482C229.564 40.4745 228.867 37.7199 227.446 35.2572C226.002 32.7544 223.848 30.8345 221.06 29.4841C218.288 28.0778 214.982 27.4131 211.206 27.4131H191.433ZM193.006 72.427V30.5589H211.206C214.63 30.5589 217.423 31.1635 219.649 32.2954L219.663 32.3026L219.677 32.3095C221.969 33.4172 223.625 34.9282 224.721 36.8293C225.844 38.7747 226.418 40.9793 226.418 43.482C226.418 46.3054 225.644 48.7013 224.128 50.7379C222.631 52.7065 220.445 54.1475 217.45 55.0033L215.5 55.5604L216.525 57.3104L225.375 72.427H215.253L206.609 56.65L206.162 55.8329H205.23H203.958H202.385V57.4058V72.427H193.006ZM244.733 27.4131H243.16V28.986V73.9999V75.5728H244.733H273.725H275.298V73.9999V64.018V62.4451H273.725H258.831V57.4528H271.817H273.39V55.8799V46.4066V44.8337H271.817H258.831V40.5408H273.725H275.298V38.9679V28.986V27.4131H273.725H244.733ZM246.306 72.427V30.5589H272.152V37.395H257.258H255.685V38.9679V46.4066V47.9795H257.258H270.245V54.307H257.258H255.685V55.8799V64.018V65.5909H257.258H272.152V72.427H246.306ZM291.203 27.4131H289.63V28.986V73.9999V75.5728H291.203H309.132C314.098 75.5728 318.502 74.5516 322.292 72.451C326.056 70.365 328.983 67.4892 331.039 63.8355L331.043 63.8282C333.094 60.136 334.102 55.9684 334.102 51.3658C334.102 46.7667 333.095 42.6193 331.043 38.9672C329.025 35.3005 326.086 32.4603 322.27 30.459C318.484 28.4091 314.088 27.4131 309.132 27.4131H291.203ZM292.775 72.427V30.5589H309.132C313.666 30.5589 317.532 31.4686 320.78 33.2298L320.79 33.2352L320.8 33.2404C324.098 34.9678 326.58 37.3797 328.29 40.4889L328.293 40.4954L328.297 40.502C330.056 43.6298 330.956 47.2365 330.956 51.3658C330.956 55.4939 330.057 59.1247 328.294 62.2986C326.535 65.424 324.038 67.8871 320.767 69.6995C317.521 71.4984 313.661 72.427 309.132 72.427H292.775ZM203.958 37.9672H202.385V39.5401V49.0134V50.5863H203.958H210.126C212.068 50.5863 213.819 50.1515 215.089 49.0049C216.391 47.8306 216.912 46.1633 216.912 44.3085C216.912 42.497 216.358 40.8892 215.102 39.6858C213.85 38.4428 212.085 37.9672 210.126 37.9672H203.958ZM205.531 47.4405V41.113H210.126C211.634 41.113 212.449 41.4817 212.892 41.9239L212.905 41.9375L212.919 41.9507C213.434 42.4413 213.766 43.1596 213.766 44.3085C213.766 45.5903 213.418 46.2754 212.982 46.6694C212.515 47.0911 211.658 47.4405 210.126 47.4405H205.531ZM303.728 38.3487H302.155V39.9216V62.81V64.3829H303.728H307.987C311.964 64.3829 315.292 63.3022 317.775 60.9679C320.287 58.6067 321.45 55.3279 321.45 51.3658C321.45 47.4431 320.285 44.1904 317.781 41.8332C315.3 39.4541 311.969 38.3487 307.987 38.3487H303.728ZM305.301 61.2371V41.4945H307.987C311.378 41.4945 313.852 42.4219 315.608 44.1081L315.614 44.1138L315.62 44.1194C317.351 45.7461 318.304 48.0862 318.304 51.3658C318.304 54.6941 317.347 57.0526 315.62 58.6757C313.865 60.3257 311.386 61.2371 307.987 61.2371H305.301ZM188.254 102.413H186.054L186.766 104.495L202.152 149.509L202.516 150.573H203.64H219.726H220.851L221.214 149.509L236.6 104.495L237.312 102.413H235.112H221.824H220.667L220.322 103.518L211.71 131.142L203.043 103.515L202.697 102.413H201.542H188.254ZM204.765 147.427L190.454 105.559H200.387L210.214 136.882L211.72 141.681L213.217 136.879L222.981 105.559H232.912L218.601 147.427H204.765ZM250.569 102.413H248.996V103.986V149V150.573H250.569H279.561H281.134V149V139.018V137.445H279.561H264.667V132.453H277.654H279.227V130.88V121.407V119.834H277.654H264.667V115.541H279.561H281.134V113.968V103.986V102.413H279.561H250.569ZM252.142 147.427V105.559H277.988V112.395H263.094H261.521V113.968V121.407V122.98H263.094H276.081V129.307H263.094H261.521V130.88V139.018V140.591H263.094H277.988V147.427H252.142ZM297.039 102.413H295.466V103.986V149V150.573H297.039H323.615H325.188V149V139.527V137.954H323.615H311.137V103.986V102.413H309.564H297.039ZM298.612 147.427V105.559H307.991V139.527V141.1H309.564H322.042V147.427H298.612Z" fill="#F06E64"/>
<path fill-rule="evenodd" clip-rule="evenodd" d="M94.8265 53.6801C110.039 57.3951 119.37 70.4295 128.778 83.5711L128.778 83.5712C132.7 89.0487 136.634 94.5448 141.014 99.3924C152.278 111.861 161.452 124.531 171.201 138.221C176.051 145.033 182.228 151.31 188.369 157.551C201.473 170.868 214.418 184.024 213.99 201.874C213.846 207.881 212.516 213.588 210.295 219H7.17784C4.51604 215.712 2.09099 212.278 0 208.644V136.171C0.33997 134.96 0.678782 133.751 1.01368 132.544C1.81747 129.647 2.5892 126.714 3.36344 123.771C8.45175 104.432 13.6481 84.6824 28.7594 71.9789C46.7016 56.8958 72.0712 48.123 94.8265 53.6801Z" fill="#F06E64"/>
</g>
</svg>
