<svg width="376" height="219" viewBox="0 0 376 219" fill="none" xmlns="http://www.w3.org/2000/svg">
<mask id="mask0" mask-type="alpha" maskUnits="userSpaceOnUse" x="1" y="0" width="375" height="219">
<rect x="1" width="375" height="219" fill="#DF5C52"/>
</mask>
<g mask="url(#mask0)">
<circle cx="313.708" cy="177.708" r="2.70807" fill="#9C4737"/>
<circle cx="323.186" cy="177.708" r="2.70807" fill="#9C4737"/>
<circle cx="332.665" cy="177.708" r="2.70807" fill="#9C4737"/>
<circle cx="342.143" cy="177.708" r="2.70807" fill="#9C4737"/>
<circle cx="313.708" cy="187.186" r="2.70807" fill="#9C4737"/>
<circle cx="323.186" cy="187.186" r="2.70807" fill="#9C4737"/>
<circle cx="332.665" cy="187.186" r="2.70807" fill="#9C4737"/>
<circle cx="342.143" cy="187.186" r="2.70807" fill="#9C4737"/>
<circle cx="313.708" cy="196.665" r="2.70807" fill="#9C4737"/>
<circle cx="323.186" cy="196.665" r="2.70807" fill="#9C4737"/>
<circle cx="332.665" cy="196.665" r="2.70807" fill="#9C4737"/>
<circle cx="342.143" cy="196.665" r="2.70807" fill="#9C4737"/>
<circle cx="115.708" cy="64.7081" r="2.70807" fill="#733327"/>
<circle cx="125.186" cy="64.7081" r="2.70807" fill="#733327"/>
<circle cx="134.665" cy="64.7081" r="2.70807" fill="#733327"/>
<circle cx="144.143" cy="64.7081" r="2.70807" fill="#733327"/>
<circle cx="115.708" cy="74.1863" r="2.70807" fill="#733327"/>
<circle cx="125.186" cy="74.1863" r="2.70807" fill="#733327"/>
<circle cx="134.665" cy="74.1863" r="2.70807" fill="#733327"/>
<circle cx="144.143" cy="74.1863" r="2.70807" fill="#733327"/>
<circle cx="115.708" cy="83.6646" r="2.70807" fill="#733327"/>
<circle cx="125.186" cy="83.6646" r="2.70807" fill="#733327"/>
<circle cx="134.665" cy="83.6646" r="2.70807" fill="#733327"/>
<circle cx="144.143" cy="83.6646" r="2.70807" fill="#733327"/>
</g>
<path fill-rule="evenodd" clip-rule="evenodd" d="M376 102.413H368.095H366.522V103.986V149V150.573H368.095H376V147.427H369.668V105.559H376V102.413ZM376 34.5096C374.88 35.7944 373.904 37.2287 373.075 38.8097L373.072 38.8164L373.068 38.8232C371.159 42.55 370.225 46.7647 370.225 51.4295C370.225 56.0943 371.159 60.309 373.068 64.0358L373.072 64.0425L373.075 64.0492C373.904 65.6306 374.88 67.0686 376 68.3607V62.8485C375.954 62.7645 375.909 62.68 375.865 62.595C374.215 59.3721 373.371 55.6628 373.371 51.4295C373.371 47.1961 374.215 43.4869 375.865 40.2639C375.909 40.1789 375.954 40.0945 376 40.0105V34.5096ZM322.024 32.6437C325.296 30.7906 328.885 29.8597 332.82 29.8597C336.801 29.8597 340.386 30.7919 343.609 32.6396L343.619 32.6452L343.629 32.6507C346.892 34.4592 349.438 36.9846 351.288 40.2517L351.291 40.2579L351.295 40.2641C353.18 43.5227 354.136 47.2101 354.136 51.3659C354.136 55.5217 353.18 59.2091 351.295 62.4677C349.4 65.7438 346.827 68.2973 343.555 70.1505C340.328 71.9601 336.76 72.8721 332.82 72.8721C328.881 72.8721 325.29 71.9606 322.018 70.1483C318.748 68.2952 316.175 65.7425 314.281 62.4677C312.397 59.2091 311.441 55.5217 311.441 51.3659C311.441 47.2101 312.397 43.5227 314.281 40.2641C316.175 36.9901 318.745 34.4608 322.011 32.6507L322.017 32.6472L322.024 32.6437ZM332.82 26.7138C328.365 26.7138 324.242 27.7739 320.48 29.9028C316.713 31.992 313.733 34.9293 311.558 38.6892C309.374 42.4666 308.295 46.7054 308.295 51.3659C308.295 56.0264 309.374 60.2651 311.558 64.0426C313.732 67.8018 316.71 70.7582 320.474 72.8891L320.48 72.8927L320.486 72.8962C324.248 74.9809 328.369 76.018 332.82 76.018C337.271 76.018 341.374 74.9809 345.097 72.8922L345.103 72.8891C348.866 70.7582 351.844 67.8018 354.018 64.0426C356.203 60.2651 357.281 56.0264 357.281 51.3659C357.281 46.7081 356.204 42.4716 354.022 38.6958C351.89 34.9328 348.93 31.9942 345.163 29.9045C341.438 27.7718 337.312 26.7138 332.82 26.7138ZM202.317 32.825C205.391 31.0348 209.009 30.114 213.224 30.114C216.882 30.114 220.077 30.7965 222.844 32.1214L222.856 32.1271L222.868 32.1326C225.683 33.4226 227.946 35.2653 229.689 37.6667L229.689 37.6667L229.696 37.6765C231.104 39.5842 232.157 41.7532 232.849 44.198H222.686C221.855 42.5951 220.683 41.291 219.17 40.3211C217.366 39.1224 215.302 38.5395 213.033 38.5395C209.823 38.5395 207.147 39.7767 205.144 42.227C203.154 44.6182 202.241 47.7422 202.241 51.4295C202.241 55.1217 203.156 58.2608 205.139 60.6894C207.142 63.1438 209.82 64.383 213.033 64.383C215.308 64.383 217.376 63.7974 219.182 62.593C220.688 61.5894 221.857 60.2688 222.687 58.6609H232.858C231.737 62.7066 229.644 65.953 226.594 68.4612C223.154 71.2823 218.738 72.745 213.224 72.745C209.008 72.745 205.388 71.8446 202.314 70.0959C199.273 68.3001 196.916 65.8105 195.229 62.595C193.579 59.3721 192.735 55.6628 192.735 51.4295C192.735 47.1962 193.579 43.4869 195.229 40.264C196.917 37.0476 199.273 34.581 202.311 32.8281L202.317 32.825ZM213.224 26.9681C208.538 26.9681 204.358 27.9966 200.736 30.105C197.166 32.1655 194.395 35.0791 192.439 38.8097L192.435 38.8164L192.432 38.8232C190.523 42.55 189.589 46.7647 189.589 51.4295C189.589 56.0943 190.523 60.309 192.432 64.0358L192.435 64.0425L192.439 64.0492C194.394 67.7781 197.162 70.7097 200.726 72.8117L200.736 72.8177L200.747 72.8236C204.367 74.8858 208.543 75.8908 213.224 75.8908C219.322 75.8908 224.485 74.2596 228.59 70.8928L228.591 70.8916C232.713 67.5023 235.304 62.9699 236.385 57.3869L236.747 55.5151H234.84H221.68H220.619L220.222 56.4979C219.614 57.9998 218.688 59.142 217.437 59.9755C216.192 60.8056 214.742 61.2372 213.033 61.2372C210.735 61.2372 208.963 60.3995 207.576 58.7001C206.167 56.9748 205.387 54.6037 205.387 51.4295C205.387 48.2533 206.168 45.9118 207.565 44.2347L207.57 44.2286L207.576 44.2225C208.963 42.523 210.735 41.6853 213.033 41.6853C214.742 41.6853 216.192 42.117 217.437 42.9471L217.45 42.9556L217.463 42.9638C218.697 43.752 219.616 44.864 220.222 46.3611L220.619 47.3439H221.68H234.84H236.754L236.384 45.4661C235.665 41.8279 234.286 38.6009 232.231 35.8136C230.163 32.9651 227.472 30.7848 224.191 29.2784C220.942 27.7249 217.274 26.9681 213.224 26.9681ZM252.19 27.4132H250.617V28.9861V74V75.5729H252.19H264.715H266.288V74V57.3893H278.401V74V75.5729H279.974H292.435H294.008V74V28.9861V27.4132H292.435H279.974H278.401V28.9861V44.2616H266.288V28.9861V27.4132H264.715H252.19ZM253.763 72.4271V30.559H263.142V45.8345V47.4074H264.715H279.974H281.547V45.8345V30.559H290.863V72.4271H281.547V55.8164V54.2435H279.974H264.715H263.142V55.8164V72.4271H253.763ZM332.82 38.2852C329.267 38.2852 326.308 39.464 324.141 41.93C321.993 44.331 321.011 47.5418 321.011 51.3659C321.011 55.1216 322.001 58.3001 324.135 60.7322C326.303 63.2023 329.264 64.383 332.82 64.383C336.341 64.383 339.278 63.1975 341.441 60.7322C343.575 58.3001 344.566 55.1216 344.566 51.3659C344.566 47.5455 343.585 44.3372 341.442 41.937C339.314 39.4621 336.369 38.2852 332.82 38.2852ZM326.5 44.011C327.978 42.3272 330.018 41.431 332.82 41.431C335.622 41.431 337.633 42.327 339.065 43.9971L339.076 44.0102L339.087 44.023C340.581 45.6904 341.42 48.0724 341.42 51.3659C341.42 54.5615 340.587 56.9355 339.077 58.6573C337.595 60.3458 335.572 61.2372 332.82 61.2372C330.018 61.2372 327.978 60.341 326.5 58.6573C324.989 56.9355 324.157 54.5615 324.157 51.3659C324.157 48.0724 324.996 45.6904 326.489 44.023L326.495 44.017L326.5 44.011ZM262.924 102.413H261.351V103.986V149V150.573H262.924H280.853C285.819 150.573 290.223 149.552 294.014 147.451C297.777 145.365 300.705 142.489 302.76 138.836L302.764 138.828C304.815 135.136 305.823 130.969 305.823 126.366C305.823 121.766 304.817 117.619 302.764 113.967C300.746 110.3 297.807 107.46 293.991 105.459C290.206 103.409 285.809 102.413 280.853 102.413H262.924ZM264.497 147.427V105.559H280.853C285.387 105.559 289.253 106.469 292.501 108.23L292.511 108.235L292.521 108.24C295.819 109.968 298.301 112.38 300.011 115.489L300.015 115.496L300.018 115.502C301.778 118.63 302.677 122.237 302.677 126.366C302.677 130.493 301.778 134.123 300.016 137.297C298.257 140.423 295.76 142.887 292.489 144.7C289.243 146.499 285.382 147.427 280.853 147.427H264.497ZM321.625 102.413H320.052V103.986V149V150.573H321.625H350.617H352.19V149V139.018V137.445H350.617H335.723V132.453H348.71H350.283V130.88V121.407V119.834H348.71H335.723V115.541H350.617H352.19V113.968V103.986V102.413H350.617H321.625ZM323.198 147.427V105.559H349.044V112.395H334.15H332.577V113.968V121.407V122.98H334.15H347.137V129.307H334.15H332.577V130.88V139.018V140.591H334.15H349.044V147.427H323.198ZM275.449 113.349H273.876V114.922V137.81V139.383H275.449H279.709C283.685 139.383 287.013 138.302 289.496 135.968C292.008 133.607 293.171 130.328 293.171 126.366C293.171 122.443 292.006 119.19 289.502 116.833C287.021 114.454 283.69 113.349 279.709 113.349H275.449ZM277.022 136.237V116.495H279.709C283.099 116.495 285.573 117.422 287.33 119.108L287.336 119.114L287.342 119.12C289.072 120.746 290.025 123.086 290.025 126.366C290.025 129.694 289.069 132.053 287.342 133.676C285.586 135.326 283.108 136.237 279.709 136.237H277.022Z" fill="#733327"/>
<path fill-rule="evenodd" clip-rule="evenodd" d="M0 206.842V139.734C0.243469 138.864 0.487671 137.995 0.731689 137.126C1.16156 135.596 1.59076 134.069 2.01367 132.544C2.81744 129.647 3.58917 126.714 4.3634 123.771C9.45172 104.432 14.6481 84.6823 29.7595 71.9789C47.7016 56.8957 73.0712 48.123 95.8265 53.6801C111.039 57.3952 120.37 70.4294 129.778 83.571C133.7 89.0485 137.634 94.5446 142.014 99.3923C153.278 111.861 162.452 124.531 172.201 138.221C177.051 145.033 183.228 151.31 189.369 157.551C202.473 170.869 215.418 184.024 214.99 201.874C214.846 207.881 213.516 213.588 211.294 219H8.17786C5.08014 215.174 2.30304 211.15 0 206.842Z" fill="#9C4737"/>
</svg>
