<svg width="375" height="219" viewBox="0 0 375 219" fill="none" xmlns="http://www.w3.org/2000/svg">
<mask id="mask0" mask-type="alpha" maskUnits="userSpaceOnUse" x="0" y="0" width="375" height="219">
<rect width="375" height="219" fill="#D8D8D8"/>
</mask>
<g mask="url(#mask0)">
<circle cx="312.708" cy="177.708" r="2.70807" fill="#B2B072"/>
<circle cx="322.186" cy="177.708" r="2.70807" fill="#B2B072"/>
<circle cx="331.665" cy="177.708" r="2.70807" fill="#B2B072"/>
<circle cx="341.143" cy="177.708" r="2.70807" fill="#B2B072"/>
<circle cx="312.708" cy="187.186" r="2.70807" fill="#B2B072"/>
<circle cx="322.186" cy="187.186" r="2.70807" fill="#B2B072"/>
<circle cx="331.665" cy="187.186" r="2.70807" fill="#B2B072"/>
<circle cx="341.143" cy="187.186" r="2.70807" fill="#B2B072"/>
<circle cx="312.708" cy="196.665" r="2.70807" fill="#B2B072"/>
<circle cx="322.186" cy="196.665" r="2.70807" fill="#B2B072"/>
<circle cx="331.665" cy="196.665" r="2.70807" fill="#B2B072"/>
<circle cx="341.143" cy="196.665" r="2.70807" fill="#B2B072"/>
<circle cx="114.708" cy="64.7081" r="2.70807" fill="#D3D194"/>
<circle cx="124.186" cy="64.7081" r="2.70807" fill="#D3D194"/>
<circle cx="133.665" cy="64.7081" r="2.70807" fill="#D3D194"/>
<circle cx="143.143" cy="64.7081" r="2.70807" fill="#D3D194"/>
<circle cx="114.708" cy="74.1863" r="2.70807" fill="#D3D194"/>
<circle cx="124.186" cy="74.1863" r="2.70807" fill="#D3D194"/>
<circle cx="133.665" cy="74.1863" r="2.70807" fill="#D3D194"/>
<circle cx="143.143" cy="74.1863" r="2.70807" fill="#D3D194"/>
<circle cx="114.708" cy="83.6646" r="2.70807" fill="#D3D194"/>
<circle cx="124.186" cy="83.6646" r="2.70807" fill="#D3D194"/>
<circle cx="133.665" cy="83.6646" r="2.70807" fill="#D3D194"/>
<circle cx="143.143" cy="83.6646" r="2.70807" fill="#D3D194"/>
</g>
<path fill-rule="evenodd" clip-rule="evenodd" d="M375 29.1034C374.338 29.4047 373.692 29.7382 373.063 30.1043C369.492 32.1649 366.721 35.0787 364.765 38.8096L364.761 38.8163L364.758 38.8231C362.849 42.5499 361.915 46.7646 361.915 51.4294C361.915 56.0942 362.849 60.3089 364.758 64.0357L364.761 64.0424L364.765 64.0491C366.72 67.778 369.488 70.7096 373.052 72.8116L373.062 72.8176L373.072 72.8235C373.698 73.1801 374.341 73.5051 375 73.7987V70.2956C374.879 70.2302 374.759 70.1636 374.639 70.0957C371.599 68.3 369.242 65.8104 367.554 62.5949C365.905 59.372 365.06 55.6627 365.06 51.4294C365.06 47.196 365.905 43.4868 367.554 40.2638C369.242 37.0475 371.599 34.5809 374.637 32.828L374.642 32.8249C374.761 32.7559 374.88 32.6882 375 32.6219V29.1034ZM375 47.3519C374.708 48.6171 374.567 49.9797 374.567 51.4294C374.567 52.8804 374.708 54.2461 375 55.5167V47.3519ZM312.265 27.4131H310.692V28.986V38.9679V40.5408H312.265H322.708V73.9999V75.5728H324.281H336.743H338.316V73.9999V40.5408H348.886H350.459V38.9679V28.986V27.4131H348.886H312.265ZM313.838 37.395V30.5589H347.313V37.395H336.743H335.17V38.9679V72.427H325.854V38.9679V37.395H324.281H313.838ZM184.433 27.6038H182.86V29.1767V73.9999V75.5728H184.433H196.958H198.531V73.9999V58.4249L203.792 74.4894L204.147 75.5728H205.287H216.032H217.172L217.527 74.4894L222.788 58.4249V73.9999V75.5728H224.361H236.759H238.332V73.9999V29.1767V27.6038H236.759H221.563H220.467L220.088 28.6322L210.797 53.8104L201.226 28.6181L200.841 27.6038H199.756H184.433ZM186.006 72.427V30.7497H198.671L209.348 58.8545L210.84 62.7813L212.294 58.8404L222.66 30.7497H235.186V72.427H225.934V48.5683L222.866 48.0788L214.892 72.427H206.427L198.453 48.0788L195.385 48.5683V72.427H186.006ZM268.716 27.6038H267.618L267.24 28.6343L250.773 73.4575L249.996 75.5728H252.249H265.41H266.547L266.903 74.4935L269.026 68.0705H282.711L284.834 74.4935L285.191 75.5728H286.327H299.552H301.802L301.029 73.4593L284.626 28.6362L284.248 27.6038H283.149H268.716ZM254.503 72.427L269.814 30.7497H282.049L297.301 72.427H287.464L285.341 66.004L284.985 64.9247H283.848H267.89H266.753L266.396 66.004L264.273 72.427H254.503ZM277.394 41.9712L275.91 37.481L274.409 41.9654L269.513 56.5886L268.82 58.6608H271.005H280.733H282.909L282.226 56.5944L277.394 41.9712ZM278.556 55.515H273.19L275.891 47.4485L278.556 55.515ZM231.427 102.413H229.854V103.986V149V150.573H231.427H243.952H245.525V149V135.505H250.119C253.863 135.505 257.151 134.836 259.924 133.426L259.933 133.422C262.717 131.983 264.864 129.999 266.302 127.458C267.72 124.953 268.413 122.138 268.413 119.054C268.413 114.122 266.846 110.038 263.604 106.982C260.376 103.855 255.794 102.413 250.119 102.413H231.427ZM233 147.427V105.559H250.119C255.29 105.559 258.97 106.869 261.422 109.248L261.43 109.256L261.439 109.264C263.955 111.632 265.268 114.836 265.268 119.054C265.268 121.65 264.689 123.922 263.564 125.909C262.46 127.86 260.794 129.435 258.494 130.625C256.266 131.756 253.495 132.359 250.119 132.359H243.952H242.379V133.932V147.427H233ZM283.485 102.413H281.912V103.986V149V150.573H283.485H310.061H311.634V149V139.527V137.954H310.061H297.583V103.986V102.413H296.01H283.485ZM285.058 147.427V105.559H294.437V139.527V141.1H296.01H308.488V147.427H285.058ZM339.828 102.604H338.73L338.351 103.634L321.884 148.457L321.107 150.573H323.361H336.522H337.658L338.015 149.493L340.138 143.07H353.823L355.946 149.493L356.302 150.573H357.439H370.663H372.914L372.141 148.459L355.737 103.636L355.359 102.604H354.26H339.828ZM325.614 147.427L340.926 105.75H353.161L368.413 147.427H358.576L356.453 141.004L356.096 139.925H354.959H339.001H337.864L337.508 141.004L335.385 147.427H325.614ZM348.506 116.971L347.022 112.481L345.521 116.965L340.625 131.589L339.931 133.661H342.117H351.844H354.02L353.338 131.594L348.506 116.971ZM243.952 112.522H242.379V114.095V124.077V125.65H243.952H248.721C250.754 125.65 252.573 125.186 253.885 123.98C255.224 122.75 255.761 121.007 255.761 119.054C255.761 117.117 255.22 115.387 253.878 114.17C252.565 112.979 250.75 112.522 248.721 112.522H243.952ZM245.525 122.504V115.668H248.721C250.337 115.668 251.255 116.038 251.765 116.5C252.245 116.936 252.615 117.685 252.615 119.054C252.615 120.45 252.242 121.218 251.757 121.663C251.248 122.131 250.332 122.504 248.721 122.504H245.525ZM349.668 130.515H344.302L347.002 122.449L349.668 130.515Z" fill="#D3D194"/>
<path fill-rule="evenodd" clip-rule="evenodd" d="M1 210.326V132.593C1.00458 132.577 1.00909 132.56 1.01367 132.544C1.81744 129.647 2.58917 126.714 3.3634 123.771C8.45172 104.432 13.6481 84.6823 28.7595 71.9789C46.7016 56.8957 72.0712 48.123 94.8265 53.6801C110.039 57.3952 119.37 70.4294 128.778 83.571C132.7 89.0485 136.634 94.5446 141.014 99.3923C152.278 111.861 161.452 124.531 171.201 138.221C176.051 145.033 182.228 151.31 188.369 157.551C201.473 170.869 214.418 184.024 213.99 201.874C213.846 207.881 212.516 213.588 210.294 219H7.17786C4.93024 216.224 2.85144 213.343 1 210.326Z" fill="#B2B072"/>
</svg>
