<svg width="22" height="20" viewBox="0 0 22 20" fill="none" xmlns="http://www.w3.org/2000/svg">
<path d="M20.625 8.57245H4.3175L9.30875 2.34444C9.54214 2.05272 9.65443 1.67664 9.6209 1.29892C9.58738 0.921206 9.4108 0.572793 9.13 0.330331C8.8492 0.0878688 8.48719 -0.0287806 8.1236 0.00604446C7.76002 0.0408695 7.42464 0.224317 7.19125 0.516029L0.31625 9.08669C0.269996 9.15486 0.228634 9.22648 0.1925 9.30096C0.1925 9.37238 0.1925 9.41523 0.0962502 9.48665C0.0339263 9.65044 0.00129404 9.82478 0 10.0009C0.00129404 10.177 0.0339263 10.3513 0.0962502 10.5151C0.0962502 10.5866 0.0962498 10.6294 0.1925 10.7008C0.228634 10.7753 0.269996 10.8469 0.31625 10.9151L7.19125 19.4858C7.32053 19.647 7.48242 19.7767 7.66541 19.8656C7.8484 19.9544 8.048 20.0003 8.25 20C8.57127 20.0006 8.88262 19.8844 9.13 19.6715C9.26923 19.5515 9.38432 19.4043 9.46868 19.2381C9.55304 19.0719 9.60501 18.89 9.62161 18.7029C9.63822 18.5158 9.61913 18.3272 9.56544 18.1478C9.51176 17.9683 9.42453 17.8017 9.30875 17.6574L4.3175 11.4293H20.625C20.9897 11.4293 21.3394 11.2788 21.5973 11.011C21.8551 10.7431 22 10.3797 22 10.0009C22 9.62205 21.8551 9.25872 21.5973 8.99083C21.3394 8.72295 20.9897 8.57245 20.625 8.57245Z"/>
</svg>
