<svg width="160" height="169" viewBox="0 0 160 169" fill="none" xmlns="http://www.w3.org/2000/svg">
<path fill-rule="evenodd" clip-rule="evenodd" d="M74.1092 1.20822C89.6429 4.99342 96.6682 22.2318 107.397 34.0822C115.516 43.049 122.127 52.1603 129.154 62.0057C140.109 77.3574 160.446 88.9292 159.993 107.782C159.535 126.803 142.514 141.641 126.975 152.626C111.576 163.514 92.7964 171.056 74.1092 168.5C56.4577 166.086 44.0453 151.387 30.8027 139.473C19.0338 128.884 6.26377 118.561 1.74243 103.391C-2.7196 88.4209 2.31196 72.9736 6.49635 57.9233C10.8829 42.1459 13.945 24.8936 26.4933 14.3678C39.4246 3.52079 57.7089 -2.78813 74.1092 1.20822Z" fill="#F5C2BE"/>
<path d="M107 114.312L48.165 56.3555L45.8953 54.1197L43.7435 52L40 55.6876L52.9402 68.4347L59.4545 81.9657L55.4751 89.0796C55.0035 89.8927 54.7382 90.8509 54.7382 91.8671C54.7382 95.0612 57.3911 97.6744 60.6335 97.6744H82.623L86.6907 101.681C85.6786 102.396 84.9226 103.409 84.5317 104.574C84.1407 105.738 84.1348 106.995 84.5148 108.164C84.8948 109.332 85.6412 110.351 86.6466 111.075C87.652 111.799 88.8646 112.191 90.11 112.193C92.0849 112.193 93.824 111.234 94.8852 109.754L103.256 118L107 114.312ZM61.8715 91.8671C61.4589 91.8671 61.1346 91.5477 61.1346 91.1412L61.2231 90.7928L63.8759 86.0598H70.8324L76.7277 91.8671H61.8715ZM85.8359 86.0598C88.0466 86.0598 89.9921 84.8693 90.9943 83.0691L101.547 64.2244C101.79 63.7812 101.912 63.2835 101.902 62.7799C101.892 62.2762 101.749 61.7839 101.487 61.3509C101.226 60.9179 100.855 60.5591 100.411 60.3095C99.9666 60.0599 99.4643 59.9281 98.9529 59.927H59.2776L85.8359 86.0598ZM60.6335 100.578C57.3911 100.578 54.7677 103.191 54.7677 106.385C54.7677 109.579 57.3911 112.193 60.6335 112.193C63.8759 112.193 66.5288 109.579 66.5288 106.385C66.5288 103.191 63.8759 100.578 60.6335 100.578Z" fill="#6C553D"/>
</svg>
