<svg width="29" height="25" viewBox="0 0 29 25" fill="none" xmlns="http://www.w3.org/2000/svg">
<path d="M25.4111 15.625H10.6521L10.9816 17.1875H24.4957C25.2711 17.1875 25.8458 17.8858 25.674 18.6191L25.3962 19.8044C26.3372 20.2475 26.9861 21.183 26.9861 22.2656C26.9861 23.7892 25.7013 25.0217 24.1252 24.9997C22.6237 24.9788 21.3888 23.797 21.3483 22.3412C21.3261 21.5459 21.6546 20.8251 22.1943 20.3124H11.6391C12.1615 20.8088 12.4861 21.5003 12.4861 22.2656C12.4861 23.819 11.1505 25.0699 9.53224 24.997C8.09533 24.9323 6.92672 23.8063 6.8512 22.4131C6.7929 21.3373 7.37663 20.389 8.26349 19.8943L4.72675 3.125H1.20833C0.540981 3.125 0 2.60034 0 1.95312V1.17187C0 0.524658 0.540981 0 1.20833 0H6.37038C6.94439 0 7.43916 0.39165 7.5542 0.937012L8.01568 3.125H27.7912C28.5666 3.125 29.1413 3.82329 28.9694 4.55659L26.5894 14.7128C26.4644 15.2464 25.9753 15.625 25.4111 15.625ZM20.5417 8.20312H18.125V6.25C18.125 5.8185 17.7644 5.46875 17.3194 5.46875H16.5139C16.069 5.46875 15.7083 5.8185 15.7083 6.25V8.20312H13.2917C12.8468 8.20312 12.4861 8.55288 12.4861 8.98437V9.76562C12.4861 10.1971 12.8468 10.5469 13.2917 10.5469H15.7083V12.5C15.7083 12.9315 16.069 13.2812 16.5139 13.2812H17.3194C17.7644 13.2812 18.125 12.9315 18.125 12.5V10.5469H20.5417C20.9866 10.5469 21.3472 10.1971 21.3472 9.76562V8.98437C21.3472 8.55288 20.9866 8.20312 20.5417 8.20312Z" fill="white"/>
</svg>
