<svg width="330" height="196" viewBox="0 0 330 196" fill="none" xmlns="http://www.w3.org/2000/svg">
<mask id="mask0" mask-type="alpha" maskUnits="userSpaceOnUse" x="0" y="0" width="330" height="196">
<path d="M0 0H330V196H0V0Z" fill="#DF5C52"/>
</mask>
<g mask="url(#mask0)">
<circle cx="25" cy="125" r="2" fill="#EC695F"/>
<circle cx="32" cy="125" r="2" fill="#EC695F"/>
<circle cx="39" cy="125" r="2" fill="#EC695F"/>
<circle cx="46" cy="125" r="2" fill="#EC695F"/>
<circle cx="25" cy="132" r="2" fill="#EC695F"/>
<circle cx="32" cy="132" r="2" fill="#EC695F"/>
<circle cx="39" cy="132" r="2" fill="#EC695F"/>
<circle cx="46" cy="132" r="2" fill="#EC695F"/>
<circle cx="25" cy="139" r="2" fill="#EC695F"/>
<circle cx="32" cy="139" r="2" fill="#EC695F"/>
<circle cx="39" cy="139" r="2" fill="#EC695F"/>
<circle cx="46" cy="139" r="2" fill="#EC695F"/>
<circle cx="170" cy="47" r="2" fill="#CA554D"/>
<circle cx="177" cy="47" r="2" fill="#CA554D"/>
<circle cx="184" cy="47" r="2" fill="#CA554D"/>
<circle cx="191" cy="47" r="2" fill="#CA554D"/>
<circle cx="170" cy="54" r="2" fill="#CA554D"/>
<circle cx="177" cy="54" r="2" fill="#CA554D"/>
<circle cx="184" cy="54" r="2" fill="#CA554D"/>
<circle cx="191" cy="54" r="2" fill="#CA554D"/>
<circle cx="170" cy="61" r="2" fill="#CA554D"/>
<circle cx="177" cy="61" r="2" fill="#CA554D"/>
<circle cx="184" cy="61" r="2" fill="#CA554D"/>
<circle cx="191" cy="61" r="2" fill="#CA554D"/>
<path fill-rule="evenodd" clip-rule="evenodd" d="M330 92.7228V151.633C324.284 157.495 317.593 162.69 311.15 167.239C295.365 178.384 276.116 186.105 256.962 183.488C241.973 181.441 230.669 170.762 219.514 160.224C217.204 158.042 214.901 155.866 212.573 153.774C211.528 152.835 210.475 151.898 209.42 150.959C198.305 141.066 187.019 131.021 182.786 116.838C178.546 102.63 182.67 88.0021 186.712 73.6674C187.029 72.5411 187.346 71.4166 187.659 70.2942C188.253 68.1613 188.823 66.002 189.395 63.8357C193.154 49.5988 196.992 35.0598 208.156 25.7079C221.41 14.6041 240.152 8.14588 256.962 12.2368C268.2 14.9717 275.093 24.5672 282.043 34.2417C284.94 38.2741 287.847 42.3202 291.082 45.8889C299.403 55.0679 306.181 64.3949 313.382 74.4733C316.966 79.4882 321.528 84.109 326.065 88.7037C327.387 90.0426 328.707 91.3793 330 92.7228Z" fill="#F06E64"/>
</g>
</svg>
