<svg width="160" height="169" viewBox="0 0 160 169" fill="none" xmlns="http://www.w3.org/2000/svg">
<path fill-rule="evenodd" clip-rule="evenodd" d="M74.1092 1.20822C89.6429 4.99342 96.6682 22.2318 107.397 34.0822C115.516 43.049 122.127 52.1603 129.154 62.0057C140.109 77.3574 160.446 88.9292 159.993 107.782C159.535 126.803 142.514 141.641 126.975 152.626C111.576 163.514 92.7964 171.056 74.1092 168.5C56.4577 166.086 44.0453 151.387 30.8027 139.473C19.0338 128.884 6.26377 118.561 1.74243 103.391C-2.7196 88.4209 2.31196 72.9736 6.49635 57.9233C10.8829 42.1459 13.945 24.8936 26.4933 14.3678C39.4246 3.52079 57.7089 -2.78813 74.1092 1.20822Z" fill="#F5C2BE"/>
<path d="M73.5 57.7C66.3922 57.7 59.5755 60.5236 54.5495 65.5495C49.5236 70.5755 46.7 77.3922 46.7 84.5C46.7 91.6078 49.5236 98.4245 54.5495 103.45C59.5755 108.476 66.3922 111.3 73.5 111.3C80.6078 111.3 87.4245 108.476 92.4505 103.45C97.4764 98.4245 100.3 91.6078 100.3 84.5C100.3 77.3922 97.4764 70.5755 92.4505 65.5495C87.4245 60.5236 80.6078 57.7 73.5 57.7V57.7ZM40 84.5C40 65.998 54.998 51 73.5 51C92.002 51 107 65.998 107 84.5C107 103.002 92.002 118 73.5 118C54.998 118 40 103.002 40 84.5ZM59.4066 70.4066C60.0348 69.7785 60.8867 69.4257 61.775 69.4257C62.6633 69.4257 63.5152 69.7785 64.1434 70.4066L73.5 79.7631L82.8565 70.4066C83.1656 70.0866 83.5352 69.8314 83.9439 69.6558C84.3527 69.4802 84.7922 69.3878 85.2371 69.384C85.6819 69.3801 86.123 69.4649 86.5347 69.6333C86.9464 69.8017 87.3204 70.0505 87.635 70.365C87.9495 70.6796 88.1983 71.0536 88.3667 71.4653C88.5351 71.877 88.6199 72.3181 88.616 72.7629C88.6122 73.2078 88.5198 73.6473 88.3442 74.0561C88.1686 74.4648 87.9134 74.8344 87.5935 75.1434L78.2369 84.5L87.5935 93.8565C88.2037 94.4884 88.5413 95.3346 88.5337 96.2129C88.5261 97.0913 88.1738 97.9315 87.5526 98.5526C86.9315 99.1738 86.0913 99.5261 85.2129 99.5337C84.3346 99.5413 83.4884 99.2037 82.8565 98.5935L73.5 89.2369L64.1434 98.5935C63.5116 99.2037 62.6654 99.5413 61.7871 99.5337C60.9087 99.5261 60.0685 99.1738 59.4474 98.5526C58.8262 97.9315 58.4739 97.0913 58.4663 96.2129C58.4587 95.3346 58.7963 94.4884 59.4066 93.8565L68.7631 84.5L59.4066 75.1434C58.7785 74.5152 58.4257 73.6633 58.4257 72.775C58.4257 71.8867 58.7785 71.0348 59.4066 70.4066V70.4066Z" fill="#6C553D"/>
</svg>
