<svg width="40" height="40" viewBox="0 0 40 40" fill="none" xmlns="http://www.w3.org/2000/svg">
<rect width="40" height="40" rx="20" fill="#E1D0C9"/>
<path d="M21.6806 15.1111C23.0306 15.1111 24.125 14.0166 24.125 12.6666C24.125 11.3166 23.0306 10.2222 21.6806 10.2222C20.3305 10.2222 19.2361 11.3166 19.2361 12.6666C19.2361 14.0166 20.3305 15.1111 21.6806 15.1111Z" fill="black"/>
<path d="M24.18 25.0294C24.1125 24.984 24.0366 24.9525 23.9567 24.9368C23.8768 24.9211 23.7947 24.9215 23.715 24.938C23.6353 24.9545 23.5597 24.9868 23.4926 25.0329C23.4256 25.079 23.3684 25.1381 23.3245 25.2066C22.7337 26.0815 22.01 26.8588 21.1795 27.5105C20.9778 27.6633 20.2261 28.2438 19.9084 28.1216C19.6884 28.0544 19.8167 27.6205 19.8595 27.4372L20.1834 26.4777C20.3178 26.0866 22.6584 19.1444 22.915 18.3499C23.2939 17.1888 23.1289 16.046 21.3995 16.321C20.9289 16.3699 16.1561 16.9872 16.0706 16.9933C15.9903 16.9985 15.9119 17.0195 15.8397 17.055C15.7676 17.0905 15.7031 17.1399 15.6501 17.2003C15.597 17.2608 15.5564 17.3311 15.5305 17.4072C15.5046 17.4834 15.494 17.5639 15.4992 17.6441C15.5044 17.7244 15.5254 17.8028 15.5609 17.8749C15.5964 17.9471 15.6458 18.0115 15.7063 18.0646C15.7667 18.1176 15.837 18.1583 15.9131 18.1842C15.9893 18.2101 16.0698 18.2207 16.15 18.2155C16.15 18.2155 17.9834 17.9772 18.185 17.9588C18.2883 17.9487 18.3923 17.9688 18.4845 18.0165C18.5767 18.0642 18.6531 18.1375 18.7045 18.2277C18.8152 18.57 18.8 18.9406 18.6617 19.2727C18.5028 19.8838 15.9911 26.9605 15.9117 27.3699C15.8265 27.7126 15.8501 28.0732 15.9794 28.4018C16.1086 28.7304 16.337 29.0105 16.6328 29.2033C17.188 29.5733 17.8491 29.7515 18.515 29.7105C19.1625 29.7026 19.8029 29.5741 20.4034 29.3316C21.925 28.7205 23.5139 27.0949 24.3511 25.8177C24.4232 25.6879 24.4456 25.5364 24.4141 25.3913C24.3826 25.2462 24.2994 25.1176 24.18 25.0294Z" fill="black"/>
</svg>
