<svg width="23" height="23" viewBox="0 0 23 23" fill="none" xmlns="http://www.w3.org/2000/svg">
<path fill-rule="evenodd" clip-rule="evenodd" d="M6.94511 0.407881C8.14348 0.352714 8.52556 0.340454 11.5782 0.340454C14.6308 0.340454 15.0129 0.353735 16.2102 0.407881C17.4075 0.462027 18.2248 0.65307 18.94 0.92993C19.6888 1.21292 20.3682 1.65528 20.9301 2.22739C21.5022 2.78826 21.9435 3.46662 22.2255 4.21649C22.5034 4.93162 22.6934 5.74892 22.7486 6.94421C22.8037 8.14462 22.816 8.52671 22.816 11.5783C22.816 14.6309 22.8027 15.013 22.7486 16.2113C22.6944 17.4066 22.5034 18.2239 22.2255 18.9391C21.9435 19.689 21.5015 20.3685 20.9301 20.9302C20.3682 21.5023 19.6888 21.9437 18.94 22.2256C18.2248 22.5035 17.4075 22.6935 16.2122 22.7487C15.0129 22.8039 14.6308 22.8161 11.5782 22.8161C8.52556 22.8161 8.14348 22.8028 6.94511 22.7487C5.74982 22.6946 4.93252 22.5035 4.21739 22.2256C3.46743 21.9436 2.78795 21.5016 2.22625 20.9302C1.65453 20.369 1.2121 19.6898 0.929808 18.9401C0.652948 18.225 0.462927 17.4077 0.407759 16.2124C0.352591 15.012 0.340332 14.6299 0.340332 11.5783C0.340332 8.52568 0.353613 8.1436 0.407759 6.94626C0.461905 5.74892 0.652948 4.93162 0.929808 4.21649C1.21251 3.4667 1.65528 2.78756 2.22727 2.22637C2.78818 1.65477 3.46698 1.21235 4.21636 0.92993C4.9315 0.65307 5.7488 0.463049 6.94409 0.407881H6.94511ZM16.1193 2.43069C14.9342 2.37655 14.5787 2.36531 11.5782 2.36531C8.57767 2.36531 8.22214 2.37655 7.03706 2.43069C5.94086 2.48075 5.34628 2.66362 4.94989 2.81789C4.4258 3.02221 4.05086 3.26433 3.65754 3.65766C3.28469 4.02039 2.99775 4.46196 2.81776 4.95001C2.6635 5.3464 2.48063 5.94098 2.43057 7.03718C2.37642 8.22226 2.36519 8.57779 2.36519 11.5783C2.36519 14.5788 2.37642 14.9343 2.43057 16.1194C2.48063 17.2156 2.6635 17.8102 2.81776 18.2066C2.99757 18.6939 3.28465 19.1362 3.65754 19.4989C4.02021 19.8718 4.46257 20.1589 4.94989 20.3387C5.34628 20.493 5.94086 20.6758 7.03706 20.7259C8.22214 20.78 8.57664 20.7913 11.5782 20.7913C14.5797 20.7913 14.9342 20.78 16.1193 20.7259C17.2155 20.6758 17.8101 20.493 18.2064 20.3387C18.7305 20.1344 19.1055 19.8922 19.4988 19.4989C19.8717 19.1362 20.1588 18.6939 20.3386 18.2066C20.4928 17.8102 20.6757 17.2156 20.7258 16.1194C20.7799 14.9343 20.7911 14.5788 20.7911 11.5783C20.7911 8.57779 20.7799 8.22226 20.7258 7.03718C20.6757 5.94098 20.4928 5.3464 20.3386 4.95001C20.1342 4.42592 19.8921 4.05098 19.4988 3.65766C19.136 3.28484 18.6945 2.99791 18.2064 2.81789C17.8101 2.66362 17.2155 2.48075 16.1193 2.43069ZM10.1428 15.0426C10.9444 15.3763 11.837 15.4213 12.6682 15.17C13.4993 14.9187 14.2174 14.3866 14.6998 13.6647C15.1823 12.9427 15.3991 12.0757 15.3133 11.2116C15.2274 10.3476 14.8443 9.54013 14.2293 8.92718C13.8372 8.53537 13.3632 8.23535 12.8412 8.04874C12.3193 7.86212 11.7625 7.79355 11.2109 7.84796C10.6593 7.90236 10.1266 8.07839 9.65119 8.36338C9.17578 8.64836 8.76947 9.03521 8.46151 9.49607C8.15355 9.95693 7.9516 10.4803 7.87021 11.0286C7.78881 11.5769 7.82999 12.1364 7.99078 12.6668C8.15158 13.1973 8.42798 13.6855 8.80009 14.0963C9.17221 14.5071 9.63078 14.8303 10.1428 15.0426ZM7.49372 7.49385C8.0301 6.95747 8.66687 6.53199 9.36768 6.24171C10.0685 5.95142 10.8196 5.80202 11.5782 5.80202C12.3367 5.80202 13.0878 5.95142 13.7887 6.24171C14.4895 6.53199 15.1262 6.95747 15.6626 7.49385C16.199 8.03022 16.6245 8.667 16.9147 9.3678C17.205 10.0686 17.3544 10.8197 17.3544 11.5783C17.3544 12.3368 17.205 13.088 16.9147 13.7888C16.6245 14.4896 16.199 15.1264 15.6626 15.6627C14.5793 16.746 13.1101 17.3546 11.5782 17.3546C10.0462 17.3546 8.57699 16.746 7.49372 15.6627C6.41046 14.5795 5.80189 13.1103 5.80189 11.5783C5.80189 10.0463 6.41046 8.57711 7.49372 7.49385ZM18.6355 6.66225C18.7684 6.53686 18.8749 6.38608 18.9485 6.21884C19.0221 6.05159 19.0613 5.87128 19.064 5.68857C19.0667 5.50587 19.0327 5.32448 18.964 5.15516C18.8953 4.98584 18.7933 4.83202 18.6641 4.70282C18.5349 4.57361 18.3811 4.47164 18.2118 4.40295C18.0424 4.33426 17.861 4.30023 17.6783 4.3029C17.4956 4.30556 17.3153 4.34486 17.1481 4.41846C16.9808 4.49206 16.83 4.59846 16.7047 4.73138C16.4608 4.98988 16.3273 5.33324 16.3325 5.68857C16.3377 6.0439 16.4811 6.38322 16.7324 6.6345C16.9837 6.88578 17.323 7.02924 17.6783 7.03442C18.0337 7.0396 18.377 6.9061 18.6355 6.66225Z" fill="#454545"/>
</svg>
