<svg width="23" height="23" viewBox="0 0 23 23" fill="none" xmlns="http://www.w3.org/2000/svg">
<path fill-rule="evenodd" clip-rule="evenodd" d="M19.3952 3.48298C18.3585 2.44441 17.1251 1.62091 15.7663 1.06017C14.4075 0.499438 12.9505 0.212624 11.4795 0.216344C5.3115 0.216344 0.290322 5.21245 0.287829 11.3537C0.287829 13.3164 0.802661 15.2319 1.78122 16.9217L0.194336 22.692L6.12675 21.1424C7.76773 22.0315 9.60617 22.4976 11.4745 22.4984H11.4795C17.6463 22.4984 22.6675 17.5023 22.67 11.3611C22.6742 9.89775 22.387 8.44805 21.8249 7.09583C21.2628 5.7436 20.437 4.51566 19.3952 3.48298ZM11.4795 20.6188H11.4758C9.80976 20.619 8.17441 20.1729 6.74131 19.3273L6.40225 19.1263L2.88194 20.0457L3.8206 16.6302L3.59996 16.2803C2.66851 14.8044 2.17542 13.0965 2.17763 11.3537C2.18012 6.24963 6.35238 2.09717 11.4833 2.09717C12.7052 2.09447 13.9156 2.333 15.0443 2.79895C16.173 3.2649 17.1976 3.94902 18.0589 4.81172C18.9248 5.6703 19.6111 6.69117 20.0782 7.81533C20.5453 8.93949 20.7839 10.1446 20.7802 11.3611C20.7777 16.4652 16.6054 20.6188 11.4795 20.6188ZM16.5817 13.6849C16.3012 13.5447 14.9275 12.8722 14.6707 12.7792C14.4152 12.6861 14.2294 12.6402 14.0425 12.9181C13.8555 13.196 13.3195 13.8226 13.1562 14.0087C12.9929 14.1948 12.8295 14.2171 12.5503 14.0781C12.2711 13.9392 11.3698 13.6452 10.3015 12.6973C9.47005 11.9591 8.90909 11.0485 8.74579 10.7693C8.58249 10.4902 8.72834 10.3401 8.8692 10.2011C8.99511 10.077 9.14843 9.87605 9.28805 9.71353C9.42767 9.551 9.47379 9.43562 9.56728 9.24952C9.66077 9.06343 9.61465 8.9009 9.5436 8.76195C9.47379 8.62175 8.91408 7.25208 8.68097 6.69502C8.45534 6.15534 8.22473 6.2273 8.0527 6.21985C7.87454 6.2126 7.69623 6.20929 7.51792 6.20993C7.37613 6.21353 7.23662 6.24624 7.10813 6.30602C6.97964 6.36579 6.86494 6.45135 6.77123 6.55731C6.51444 6.83646 5.79267 7.50889 5.79267 8.87857C5.79267 10.2482 6.79491 11.572 6.93453 11.7581C7.07414 11.9442 8.9066 14.7543 11.7114 15.9602C12.3795 16.2468 12.9006 16.418 13.3057 16.547C13.9751 16.7592 14.5847 16.7282 15.0671 16.6575C15.6044 16.5781 16.7213 15.985 16.9544 15.3349C17.1876 14.6848 17.1876 14.1278 17.1177 14.0111C17.0479 13.8945 16.8597 13.8238 16.5817 13.6849Z" fill="#454545"/>
</svg>
